<svg width="423" height="149" viewBox="0 0 423 149" fill="none" xmlns="http://www.w3.org/2000/svg">
<path d="M122.5 51.5H82.5V40H44.5V111H82.5V96H122.5V124L93.5 148H34.5L0 119.5V23L32 0H94L122.5 23V51.5Z" fill="black"/>
<path d="M423 51.5H383V40H345V111H383V96H423V124L394 148H335L300.5 119.5V23L332.5 0H394.5L423 23V51.5Z" fill="black"/>
<path d="M282.326 32.1211L282.5 32.2705V116.238L282.314 116.389L242.814 148.389L242.677 148.5H140.5V115.5H166V33H140.5V1H246.186L282.326 32.1211ZM200 36V113.5H229.229L229.38 113.325L238.38 102.825L238.5 102.685V44.2754L238.332 44.126L229.332 36.126L229.19 36H200Z" fill="black"/>
</svg>
