<svg width="500" height="500" viewBox="0 0 500 500" fill="none" xmlns="http://www.w3.org/2000/svg">
<path d="M7.53716 139.354C9.33176 139.566 14.8748 139.433 16.9929 139.436L36.1225 139.46L84.1748 139.46C91.2733 139.456 98.3823 139.416 105.48 139.454C138.49 139.634 169.729 151.541 193.09 174.816C215.324 196.983 227.831 227.08 227.856 258.475C227.91 291.162 215.233 320.514 192.248 343.579C173.004 362.014 149.436 373.83 122.77 376.787C111.405 378.045 98.7925 377.645 87.2465 377.645L33.8473 377.65L16.0818 377.665C13.2971 377.665 9.77261 377.407 7.08398 377.715C7.38508 370.007 7.19811 361.334 7.19891 353.549L7.20153 311.422L7.20168 183.256C7.20143 178.07 6.86583 140.858 7.53716 139.354ZM76.7365 307.697C83.4903 307.767 90.2443 307.795 96.9983 307.78C101.943 307.777 107.159 307.887 112.054 307.442C122.385 306.507 132.928 301.955 140.372 294.62C140.607 294.39 140.837 294.155 141.061 293.917C150.859 283.975 155.654 272.462 155.595 258.435C155.642 245.381 150.478 232.849 141.248 223.618C125.347 207.866 108.337 209.818 87.9688 209.86C85.401 209.865 79.3485 210.083 77.139 209.844C76.152 211.696 77.6095 296.957 76.7365 307.697Z" fill="black"/>
<path d="M364.142 233.62C370.34 233.552 376.535 233.907 382.685 234.684C416.442 239.063 447.08 256.665 467.87 283.62C488.55 310.302 497.73 344.132 493.377 377.61C471.477 378.022 449.38 377.385 427.462 377.645C424.535 377.68 421.64 377.487 418.705 377.607C424.337 360.735 420.155 341.137 409.022 327.43C401.312 317.892 390.647 311.192 378.707 308.387C375.505 307.667 372.372 307.397 369.115 307.06C363.64 306.965 358.45 307.387 353.102 308.657C339.19 312.075 327.175 320.822 319.647 333.012C310.69 347.547 309.957 361.437 313.772 377.525C305.72 377.812 296.75 377.637 288.627 377.637L239.016 377.607C238.863 374.08 238.467 370.61 238.335 367.065C236.878 333.02 249.059 299.802 272.18 274.772C296.962 248.113 328.075 234.983 364.142 233.62Z" fill="black"/>
<path d="M257.015 139.386C263.928 139.752 273.883 139.431 281.013 139.43L328.868 139.428L475.78 139.446C470.225 152.029 456.833 166.425 446.625 175.449C434.108 186.22 417.365 195.176 401.57 199.844C370.005 209.148 336.035 205.552 307.118 189.845C289.488 180.29 274.395 166.657 263.105 150.083C261.353 147.528 257.84 142.188 257.015 139.386Z" fill="black"/>
</svg>
