<svg width="114" height="127" viewBox="0 0 114 127" fill="none" xmlns="http://www.w3.org/2000/svg">
<path d="M45.3664 0.121279C50.3465 -0.159092 58.1209 -0.0512045 62.7142 1.50995C101.829 14.8232 106.752 69.9018 69.2581 89.0516C59.4388 94.0669 47.1176 96.1455 36.3547 92.9771C38.3261 95.1433 39.7535 97.1018 41.9589 99.3285C50.1733 107.622 57.8829 110.939 68.0358 115.594C72.1649 117.852 72.0911 119.701 70.8371 124.013C66.298 127.87 62.2504 125.37 57.3186 123.607C27.144 112.822 2.33887 86.3248 0.125346 53.4142C-0.763667 40.1979 3.06902 25.5272 11.8552 15.4092C20.8636 5.14752 31.9741 0.928335 45.3664 0.121279Z" fill="black"/>
<path d="M92.1703 87.4547C102.849 86.2501 112.489 93.9155 113.721 104.591C114.954 115.267 107.313 124.927 96.6406 126.187C85.9285 127.451 76.2256 119.777 74.9888 109.062C73.7522 98.3465 81.4518 88.6634 92.1703 87.4547Z" fill="black"/>
</svg>
