<svg width="233" height="229" viewBox="0 0 233 229" fill="none" xmlns="http://www.w3.org/2000/svg">
<path d="M226.982 21.2381C230.962 20.9079 232.304 22.7974 232.279 26.7031C232.179 42.5849 232.087 58.4681 231.914 74.3496L231.267 153.408L230.739 201.36C230.592 209.433 232.647 222.493 224.802 227.108C216.737 231.85 213.932 224.65 210.842 219.223L203.197 205.743L176.562 158.613C174.444 154.968 172.359 151.305 170.307 147.623C169.447 146.083 166.682 140.945 165.737 139.99C163.784 138.01 151.952 140.595 149.314 141.003L126.235 144.473C121.781 145.183 117.273 146.085 112.749 146.055C108.355 146.028 108.053 144.3 108.204 140.55C110.297 136.703 126.817 120.875 130.862 116.838L158.197 89.1626L206.734 40.1956C211.342 35.6053 221.729 23.6369 226.982 21.2381Z" fill="black"/>
<path d="M195.857 0.0988561C199.429 -0.0706439 210.989 -0.802647 206.627 6.80535C204.692 10.1776 198.982 15.0114 195.967 18.0221L171.199 42.5393L120.668 92.6068C113.601 99.7403 106.471 106.813 99.279 113.82C96.2387 116.78 90.5337 123.365 86.7182 124.323C79.1622 126.218 83.7339 107.998 84.2097 104.838L88.2127 77.9054C89.9404 66.6179 91.3644 67.8843 81.1492 62.2366L26.2019 31.1256L11.193 22.6686C8.04571 20.8911 4.4172 19.0229 1.58995 16.7856C0.674451 16.0699 -0.0793005 13.6026 0.0066995 12.4516C0.8537 1.10136 12.3317 1.71485 20.4232 1.70785C25.9744 1.70335 30.7107 1.50085 35.7937 1.5041L68.5117 1.24261L152.302 0.487101L178.274 0.1961C184.122 0.1636 190.017 0.266606 195.857 0.0988561Z" fill="black"/>
</svg>
